<svg width="25" height="24" viewBox="0 0 25 24" fill="none" xmlns="http://www.w3.org/2000/svg">
<path fill-rule="evenodd" clip-rule="evenodd" d="M12.26 18C14.2481 18 16.0812 17.1828 17.3097 15.818C16.6905 14.8878 14.4231 14 12.26 14C10.0969 14 7.82962 14.8878 7.2104 15.818C8.4389 17.1828 10.272 18 12.26 18ZM12.26 7C13.9365 7 15.2898 8.34 15.2898 10C15.2898 11.66 13.9365 13 12.26 13C10.5836 13 9.23026 11.66 9.23026 10C9.23026 8.34 10.5836 7 12.26 7ZM12.26 4C7.80078 4 4.18062 7.58457 4.18062 12C4.18062 16.4154 7.80078 20 12.26 20C16.7193 20 20.3395 16.4154 20.3395 12C20.3395 7.58457 16.7193 4 12.26 4ZM12.26 2C17.8348 2 22.3593 6.48 22.3593 12C22.3593 17.52 17.8348 22 12.26 22C6.68524 22 2.16077 17.52 2.16077 12C2.16077 6.48 6.68524 2 12.26 2Z" fill="#F2F2F2"/>
</svg>
