<svg width="52" height="51" viewBox="0 0 52 51" fill="none" xmlns="http://www.w3.org/2000/svg">
<path d="M50.9812 0.879557L50.8449 24.3747C50.7645 38.2124 39.4817 49.365 25.644 49.2847L24.8639 49.2801C11.4571 49.2023 0.651775 38.2708 0.729598 24.8639C0.807421 11.4571 11.7389 0.651767 25.1458 0.72959L50.9812 0.879557Z" stroke="#00A87C" stroke-width="1.17059"/>
<path d="M41.6983 21.3492C39.9276 20.4618 37.9772 19.9999 36 19.9999C34.0227 19.9999 32.0723 20.4618 30.3016 21.3492C30.2105 21.3951 30.134 21.4658 30.0807 21.5533C30.0274 21.6408 29.9994 21.7416 30 21.8444V39.4495C29.9999 39.5433 30.0237 39.6356 30.0689 39.7175C30.1142 39.7994 30.1794 39.8683 30.2585 39.9177C30.3376 39.967 30.4279 39.9951 30.5208 39.9994C30.6137 40.0036 30.7061 39.9838 30.7893 39.9419C32.4083 39.1299 34.1918 38.7073 36 38.7073C37.8081 38.7073 39.5917 39.1299 41.2107 39.9419C41.2939 39.9838 41.3863 40.0036 41.4792 39.9994C41.5721 39.9951 41.6624 39.967 41.7414 39.9177C41.8205 39.8683 41.8858 39.7994 41.931 39.7175C41.9763 39.6356 42 39.5433 42 39.4495V21.8444C42.0005 21.7416 41.9726 21.6408 41.9193 21.5533C41.866 21.4658 41.7894 21.3951 41.6983 21.3492V21.3492ZM39.7893 34.8381C39.7435 34.9765 39.645 35.0908 39.5156 35.156C39.3862 35.2212 39.2365 35.2319 39.0993 35.1858C37.086 34.5141 34.9118 34.5141 32.8985 35.1858C32.8305 35.2086 32.7586 35.2177 32.6871 35.2125C32.6156 35.2073 32.5458 35.188 32.4816 35.1556C32.4175 35.1232 32.3603 35.0784 32.3134 35.0237C32.2664 34.9691 32.2306 34.9056 32.208 34.837C32.1854 34.7683 32.1763 34.6959 32.1815 34.6237C32.1866 34.5516 32.2058 34.4812 32.2379 34.4165C32.27 34.3518 32.3144 34.2941 32.3686 34.2468C32.4228 34.1994 32.4858 34.1633 32.5538 34.1405C34.7908 33.3933 37.207 33.3933 39.444 34.1405C39.5125 34.1631 39.5759 34.1993 39.6305 34.2468C39.685 34.2944 39.7297 34.3524 39.7619 34.4175C39.7941 34.4825 39.8132 34.5534 39.8181 34.626C39.823 34.6986 39.8136 34.7714 39.7903 34.8403L39.7893 34.8381ZM39.7893 30.4368C39.7435 30.5752 39.645 30.6895 39.5156 30.7547C39.3862 30.82 39.2365 30.8306 39.0993 30.7845C37.086 30.1128 34.9118 30.1128 32.8985 30.7845C32.8305 30.8073 32.7586 30.8164 32.6871 30.8112C32.6156 30.8061 32.5458 30.7867 32.4816 30.7543C32.4175 30.7219 32.3603 30.6771 32.3134 30.6225C32.2664 30.5678 32.2306 30.5043 32.208 30.4357C32.1854 30.367 32.1763 30.2946 32.1815 30.2224C32.1866 30.1503 32.2058 30.0799 32.2379 30.0152C32.27 29.9505 32.3144 29.8928 32.3686 29.8455C32.4228 29.7981 32.4858 29.762 32.5538 29.7392C34.7908 28.9921 37.207 28.9921 39.444 29.7392C39.5125 29.7618 39.5759 29.798 39.6305 29.8456C39.685 29.8931 39.7297 29.9511 39.7619 30.0162C39.7941 30.0813 39.8132 30.1521 39.8181 30.2247C39.823 30.2973 39.8136 30.3701 39.7903 30.439L39.7893 30.4368ZM39.7893 26.0355C39.7435 26.1739 39.645 26.2882 39.5156 26.3535C39.3862 26.4187 39.2365 26.4294 39.0993 26.3832C37.086 25.7115 34.9118 25.7115 32.8985 26.3832C32.8305 26.406 32.7586 26.4151 32.6871 26.4099C32.6156 26.4048 32.5458 26.3854 32.4816 26.353C32.4175 26.3206 32.3603 26.2758 32.3134 26.2212C32.2664 26.1665 32.2306 26.103 32.208 26.0344C32.1854 25.9657 32.1763 25.8933 32.1815 25.8211C32.1866 25.749 32.2058 25.6786 32.2379 25.6139C32.27 25.5492 32.3144 25.4916 32.3686 25.4442C32.4228 25.3968 32.4858 25.3607 32.5538 25.3379C34.7908 24.5908 37.207 24.5908 39.444 25.3379C39.5125 25.3606 39.5759 25.3967 39.6305 25.4443C39.685 25.4918 39.7297 25.5498 39.7619 25.6149C39.7941 25.68 39.8132 25.7508 39.8181 25.8234C39.823 25.896 39.8136 25.9688 39.7903 26.0377L39.7893 26.0355Z" fill="#00A87C" fill-opacity="0.5"/>
<path d="M28.6732 21.3492C26.7549 20.4618 24.642 19.9999 22.5 19.9999C20.358 19.9999 18.245 20.4618 16.3268 21.3492C16.2281 21.3951 16.1452 21.4658 16.0874 21.5533C16.0297 21.6408 15.9994 21.7416 16 21.8444V39.4495C15.9999 39.5433 16.0257 39.6356 16.0747 39.7175C16.1237 39.7994 16.1944 39.8683 16.2801 39.9177C16.3657 39.967 16.4635 39.9951 16.5642 39.9994C16.6648 40.0036 16.7649 39.9838 16.855 39.9419C18.609 39.1299 20.5412 38.7073 22.5 38.7073C24.4588 38.7073 26.391 39.1299 28.1449 39.9419C28.235 39.9838 28.3352 40.0036 28.4358 39.9994C28.5364 39.9951 28.6342 39.967 28.7199 39.9177C28.8056 39.8683 28.8763 39.7994 28.9253 39.7175C28.9743 39.6356 29 39.5433 29 39.4495V21.8444C29.0006 21.7416 28.9703 21.6408 28.9125 21.5533C28.8548 21.4658 28.7719 21.3951 28.6732 21.3492V21.3492ZM26.605 34.8381C26.5554 34.9765 26.4488 35.0908 26.3086 35.156C26.1684 35.2212 26.0062 35.2319 25.8575 35.1858C23.6765 34.5141 21.3211 34.5141 19.1401 35.1858C19.0664 35.2086 18.9885 35.2177 18.911 35.2125C18.8336 35.2073 18.7579 35.188 18.6884 35.1556C18.619 35.1232 18.557 35.0784 18.5062 35.0237C18.4553 34.9691 18.4165 34.9056 18.392 34.837C18.3675 34.7683 18.3577 34.6959 18.3633 34.6237C18.3688 34.5516 18.3896 34.4812 18.4244 34.4165C18.4592 34.3518 18.5073 34.2941 18.566 34.2468C18.6247 34.1994 18.6929 34.1633 18.7666 34.1405C21.19 33.3933 23.8076 33.3933 26.231 34.1405C26.3052 34.1631 26.3739 34.1993 26.433 34.2468C26.4921 34.2944 26.5405 34.3524 26.5754 34.4175C26.6103 34.4825 26.631 34.5534 26.6363 34.626C26.6416 34.6986 26.6314 34.7714 26.6062 34.8403L26.605 34.8381ZM26.605 30.4368C26.5554 30.5752 26.4488 30.6895 26.3086 30.7547C26.1684 30.82 26.0062 30.8306 25.8575 30.7845C23.6765 30.1128 21.3211 30.1128 19.1401 30.7845C19.0664 30.8073 18.9885 30.8164 18.911 30.8112C18.8336 30.8061 18.7579 30.7867 18.6884 30.7543C18.619 30.7219 18.557 30.6771 18.5062 30.6225C18.4553 30.5678 18.4165 30.5043 18.392 30.4357C18.3675 30.367 18.3577 30.2946 18.3633 30.2224C18.3688 30.1503 18.3896 30.0799 18.4244 30.0152C18.4592 29.9505 18.5073 29.8928 18.566 29.8455C18.6247 29.7981 18.6929 29.762 18.7666 29.7392C21.19 28.9921 23.8076 28.9921 26.231 29.7392C26.3052 29.7618 26.3739 29.798 26.433 29.8456C26.4921 29.8931 26.5405 29.9511 26.5754 30.0162C26.6103 30.0813 26.631 30.1521 26.6363 30.2247C26.6416 30.2973 26.6314 30.3701 26.6062 30.439L26.605 30.4368ZM26.605 26.0355C26.5554 26.1739 26.4488 26.2882 26.3086 26.3535C26.1684 26.4187 26.0062 26.4294 25.8575 26.3832C23.6765 25.7115 21.3211 25.7115 19.1401 26.3832C19.0664 26.406 18.9885 26.4151 18.911 26.4099C18.8336 26.4048 18.7579 26.3854 18.6884 26.353C18.619 26.3206 18.557 26.2758 18.5062 26.2212C18.4553 26.1665 18.4165 26.103 18.392 26.0344C18.3675 25.9657 18.3577 25.8933 18.3633 25.8211C18.3688 25.749 18.3896 25.6786 18.4244 25.6139C18.4592 25.5492 18.5073 25.4916 18.566 25.4442C18.6247 25.3968 18.6929 25.3607 18.7666 25.3379C21.19 24.5908 23.8076 24.5908 26.231 25.3379C26.3052 25.3606 26.3739 25.3967 26.433 25.4443C26.4921 25.4918 26.5405 25.5498 26.5754 25.6149C26.6103 25.68 26.631 25.7508 26.6363 25.8234C26.6416 25.896 26.6314 25.9688 26.6062 26.0377L26.605 26.0355Z" fill="#00A87C" fill-opacity="0.5"/>
<path d="M35.9677 28.4838H34.3226V15.8709H35.4193C35.5172 15.8709 35.6133 15.8447 35.6977 15.795C35.782 15.7453 35.8515 15.674 35.899 15.5884C35.9464 15.5027 35.9701 15.406 35.9675 15.3081C35.965 15.2103 35.9362 15.1149 35.8844 15.0319L33.4649 11.1603C33.3177 10.923 33.1122 10.7274 32.868 10.5921C32.6238 10.4567 32.349 10.3862 32.0698 10.387H22.8064V9.29026H26.6451C26.7906 9.29026 26.9301 9.23248 27.0329 9.12964C27.1358 9.0268 27.1935 8.88731 27.1935 8.74187V6.54833C27.1935 6.40288 27.1358 6.2634 27.0329 6.16056C26.9301 6.05772 26.7906 5.99994 26.6451 5.99994H22.258C22.1126 5.99994 21.9731 6.05772 21.8703 6.16056C21.7674 6.2634 21.7097 6.40288 21.7097 6.54833V10.387H12.4463C12.1671 10.3862 11.8923 10.4567 11.6481 10.5921C11.4039 10.7274 11.1984 10.923 11.0512 11.1603L8.63173 15.0319C8.57984 15.1149 8.55113 15.2103 8.54856 15.3081C8.54599 15.406 8.56966 15.5027 8.61711 15.5884C8.66457 15.674 8.73408 15.7453 8.81842 15.795C8.90276 15.8447 8.99887 15.8709 9.09676 15.8709H10.1935V28.4838H8.54837C8.40293 28.4838 8.26345 28.5416 8.1606 28.6444C8.05776 28.7473 7.99998 28.8867 7.99998 29.0322C7.99998 29.1776 8.05776 29.3171 8.1606 29.42C8.26345 29.5228 8.40293 29.5806 8.54837 29.5806H35.9677C36.1132 29.5806 36.2526 29.5228 36.3555 29.42C36.4583 29.3171 36.5161 29.1776 36.5161 29.0322C36.5161 28.8867 36.4583 28.7473 36.3555 28.6444C36.2526 28.5416 36.1132 28.4838 35.9677 28.4838ZM32.5343 11.7416L34.4322 14.7741H28.4685L23.9443 11.4838H32.0698C32.1628 11.4835 32.2543 11.507 32.3356 11.5521C32.4169 11.5973 32.4853 11.6625 32.5343 11.7416V11.7416ZM22.8064 7.09671H26.0968V8.19349H22.8064V7.09671ZM11.9818 11.7416C12.0308 11.6625 12.0991 11.5973 12.1805 11.5521C12.2618 11.507 12.3533 11.4835 12.4463 11.4838H20.5718L16.0476 14.7741H10.0839L11.9818 11.7416ZM11.2903 15.8709H15.6774V28.4838H11.2903V15.8709ZM16.7742 15.6016L22.258 11.6132L27.7419 15.6016V28.4838H25.5484V24.6451C25.5484 24.2088 25.375 23.7903 25.0665 23.4818C24.758 23.1733 24.3395 22.9999 23.9032 22.9999H20.6129C20.1766 22.9999 19.7581 23.1733 19.4496 23.4818C19.1411 23.7903 18.9677 24.2088 18.9677 24.6451V28.4838H16.7742V15.6016ZM20.0645 24.6451C20.0645 24.4997 20.1223 24.3602 20.2251 24.2573C20.328 24.1545 20.4674 24.0967 20.6129 24.0967H21.7097V28.4838H20.0645V24.6451ZM22.8064 28.4838V24.0967H23.9032C24.0486 24.0967 24.1881 24.1545 24.291 24.2573C24.3938 24.3602 24.4516 24.4997 24.4516 24.6451V28.4838H22.8064ZM28.8387 28.4838V15.8709H33.2258V28.4838H28.8387Z" fill="#061058"/>
<path d="M22.258 18.0643C22.6919 18.0643 23.116 17.9356 23.4767 17.6946C23.8374 17.4535 24.1186 17.111 24.2846 16.7101C24.4506 16.3093 24.4941 15.8683 24.4094 15.4428C24.3248 15.0173 24.1159 14.6264 23.8091 14.3196C23.5023 14.0129 23.1115 13.8039 22.686 13.7193C22.2605 13.6347 21.8194 13.6781 21.4186 13.8441C21.0178 14.0102 20.6752 14.2913 20.4342 14.652C20.1931 15.0128 20.0645 15.4369 20.0645 15.8707C20.0645 16.4525 20.2956 17.0104 20.707 17.4218C21.1183 17.8331 21.6763 18.0643 22.258 18.0643ZM22.258 14.7739C22.475 14.7739 22.687 14.8383 22.8674 14.9588C23.0477 15.0793 23.1883 15.2506 23.2713 15.451C23.3543 15.6514 23.3761 15.8719 23.3337 16.0847C23.2914 16.2974 23.187 16.4929 23.0336 16.6462C22.8802 16.7996 22.6848 16.9041 22.472 16.9464C22.2593 16.9887 22.0387 16.967 21.8383 16.884C21.6379 16.801 21.4666 16.6604 21.3461 16.48C21.2256 16.2997 21.1613 16.0876 21.1613 15.8707C21.1613 15.5798 21.2768 15.3009 21.4825 15.0952C21.6882 14.8895 21.9672 14.7739 22.258 14.7739V14.7739Z" fill="#061058"/>
<path d="M18.9677 20.8062H20.0645C20.2099 20.8062 20.3494 20.7484 20.4523 20.6456C20.5551 20.5427 20.6129 20.4032 20.6129 20.2578C20.6129 20.1124 20.5551 19.9729 20.4523 19.87C20.3494 19.7672 20.2099 19.7094 20.0645 19.7094H18.9677C18.8223 19.7094 18.6828 19.7672 18.58 19.87C18.4771 19.9729 18.4193 20.1124 18.4193 20.2578C18.4193 20.4032 18.4771 20.5427 18.58 20.6456C18.6828 20.7484 18.8223 20.8062 18.9677 20.8062Z" fill="#061058"/>
<path d="M14.0322 17.5159H12.9355C12.79 17.5159 12.6505 17.5736 12.5477 17.6765C12.4449 17.7793 12.3871 17.9188 12.3871 18.0643C12.3871 18.2097 12.4449 18.3492 12.5477 18.452C12.6505 18.5549 12.79 18.6126 12.9355 18.6126H14.0322C14.1777 18.6126 14.3172 18.5549 14.42 18.452C14.5229 18.3492 14.5806 18.2097 14.5806 18.0643C14.5806 17.9188 14.5229 17.7793 14.42 17.6765C14.3172 17.5736 14.1777 17.5159 14.0322 17.5159Z" fill="#061058"/>
<path d="M14.0322 21.3546H12.9355C12.79 21.3546 12.6505 21.4124 12.5477 21.5152C12.4449 21.618 12.3871 21.7575 12.3871 21.903C12.3871 22.0484 12.4449 22.1879 12.5477 22.2907C12.6505 22.3936 12.79 22.4514 12.9355 22.4514H14.0322C14.1777 22.4514 14.3172 22.3936 14.42 22.2907C14.5229 22.1879 14.5806 22.0484 14.5806 21.903C14.5806 21.7575 14.5229 21.618 14.42 21.5152C14.3172 21.4124 14.1777 21.3546 14.0322 21.3546Z" fill="#061058"/>
<path d="M14.0322 25.1933H12.9355C12.79 25.1933 12.6505 25.2511 12.5477 25.3539C12.4449 25.4567 12.3871 25.5962 12.3871 25.7417C12.3871 25.8871 12.4449 26.0266 12.5477 26.1294C12.6505 26.2323 12.79 26.2901 12.9355 26.2901H14.0322C14.1777 26.2901 14.3172 26.2323 14.42 26.1294C14.5229 26.0266 14.5806 25.8871 14.5806 25.7417C14.5806 25.5962 14.5229 25.4567 14.42 25.3539C14.3172 25.2511 14.1777 25.1933 14.0322 25.1933Z" fill="#061058"/>
<path d="M31.5806 17.5159H30.4838C30.3384 17.5159 30.1989 17.5736 30.0961 17.6765C29.9932 17.7793 29.9355 17.9188 29.9355 18.0643C29.9355 18.2097 29.9932 18.3492 30.0961 18.452C30.1989 18.5549 30.3384 18.6126 30.4838 18.6126H31.5806C31.7261 18.6126 31.8655 18.5549 31.9684 18.452C32.0712 18.3492 32.129 18.2097 32.129 18.0643C32.129 17.9188 32.0712 17.7793 31.9684 17.6765C31.8655 17.5736 31.7261 17.5159 31.5806 17.5159Z" fill="#061058"/>
<path d="M31.5806 21.3546H30.4838C30.3384 21.3546 30.1989 21.4124 30.0961 21.5152C29.9932 21.618 29.9355 21.7575 29.9355 21.903C29.9355 22.0484 29.9932 22.1879 30.0961 22.2907C30.1989 22.3936 30.3384 22.4514 30.4838 22.4514H31.5806C31.7261 22.4514 31.8655 22.3936 31.9684 22.2907C32.0712 22.1879 32.129 22.0484 32.129 21.903C32.129 21.7575 32.0712 21.618 31.9684 21.5152C31.8655 21.4124 31.7261 21.3546 31.5806 21.3546Z" fill="#061058"/>
<path d="M31.5806 25.1933H30.4838C30.3384 25.1933 30.1989 25.2511 30.0961 25.3539C29.9932 25.4567 29.9355 25.5962 29.9355 25.7417C29.9355 25.8871 29.9932 26.0266 30.0961 26.1294C30.1989 26.2323 30.3384 26.2901 30.4838 26.2901H31.5806C31.7261 26.2901 31.8655 26.2323 31.9684 26.1294C32.0712 26.0266 32.129 25.8871 32.129 25.7417C32.129 25.5962 32.0712 25.4567 31.9684 25.3539C31.8655 25.2511 31.7261 25.1933 31.5806 25.1933Z" fill="#061058"/>
<path d="M23.9032 20.2578C23.9032 20.4032 23.961 20.5427 24.0638 20.6456C24.1667 20.7484 24.3061 20.8062 24.4516 20.8062H25.5484C25.6938 20.8062 25.8333 20.7484 25.9361 20.6456C26.039 20.5427 26.0967 20.4032 26.0967 20.2578C26.0967 20.1124 26.039 19.9729 25.9361 19.87C25.8333 19.7672 25.6938 19.7094 25.5484 19.7094H24.4516C24.3061 19.7094 24.1667 19.7672 24.0638 19.87C23.961 19.9729 23.9032 20.1124 23.9032 20.2578Z" fill="#061058"/>
</svg>
