<svg width="52" height="51" viewBox="0 0 52 51" fill="none" xmlns="http://www.w3.org/2000/svg">
<path d="M50.9812 0.879557L50.8449 24.3747C50.7645 38.2124 39.4817 49.365 25.644 49.2847L24.8639 49.2801C11.4571 49.2023 0.651775 38.2708 0.729598 24.8639C0.807421 11.4571 11.7389 0.651767 25.1458 0.72959L50.9812 0.879557Z" stroke="#00A87C" stroke-width="1.17059"/>
<path d="M27.8087 36.6779C28.0576 36.7131 28.3114 36.69 28.5499 36.6106C28.7885 36.5311 29.0053 36.3974 29.1835 36.22L42.5253 22.8782C42.6764 22.7282 42.7961 22.5496 42.8776 22.3529C42.9591 22.1562 43.0007 21.9453 43 21.7323V14.62C43 14.1903 42.8293 13.7783 42.5255 13.4745C42.2217 13.1707 41.8096 13 41.38 13H34.2795C34.0617 13.0004 33.8462 13.0446 33.6457 13.1298C33.4453 13.2151 33.264 13.3397 33.1126 13.4963L19.3911 27.7452C19.3334 27.8051 19.2904 27.8775 19.2653 27.9567C19.2402 28.036 19.2337 28.1199 19.2464 28.2021L20.0812 33.628L36.9946 16.7147C37.0444 16.6631 37.104 16.6219 37.1699 16.5936C37.2358 16.5653 37.3067 16.5504 37.3784 16.5498C37.4501 16.5492 37.5212 16.5629 37.5875 16.59C37.6539 16.6172 37.7142 16.6573 37.7649 16.708C37.8156 16.7587 37.8557 16.819 37.8828 16.8853C37.91 16.9517 37.9237 17.0228 37.923 17.0945C37.9224 17.1662 37.9075 17.2371 37.8792 17.3029C37.8509 17.3688 37.8098 17.4284 37.7582 17.4782L16.1581 39.0782C16.0826 39.1537 16.0312 39.2499 16.0104 39.3547C15.9895 39.4594 16.0002 39.568 16.0411 39.6666C16.082 39.7653 16.1512 39.8496 16.2399 39.909C16.3287 39.9683 16.4331 40 16.5399 40H40.3C41.0161 40 41.7028 39.7155 42.2092 39.2092C42.7155 38.7028 43 38.0161 43 37.3C43 36.5839 42.7155 35.8972 42.2092 35.3908C41.7028 34.8845 41.0161 34.6 40.3 34.6H38.68C38.2503 34.6 37.8383 34.4293 37.5345 34.1255C37.2306 33.8217 37.06 33.4097 37.06 32.98C37.06 32.5503 37.2306 32.1383 37.5345 31.8345C37.8383 31.5307 38.2503 31.36 38.68 31.36H42.46C42.6032 31.36 42.7406 31.3031 42.8418 31.2018C42.9431 31.1006 43 30.9632 43 30.82C43 30.6768 42.9431 30.5394 42.8418 30.4382C42.7406 30.3369 42.6032 30.28 42.46 30.28H38.68C37.9639 30.28 37.2771 30.5645 36.7708 31.0708C36.2644 31.5772 35.98 32.2639 35.98 32.98C35.98 33.6961 36.2644 34.3828 36.7708 34.8892C37.2771 35.3955 37.9639 35.68 38.68 35.68H40.3C40.7296 35.68 41.1417 35.8507 41.4455 36.1545C41.7493 36.4583 41.92 36.8703 41.92 37.3C41.92 37.7297 41.7493 38.1417 41.4455 38.4455C41.1417 38.7493 40.7296 38.92 40.3 38.92H17.8435L21.0511 35.7124L27.8087 36.6779Z" fill="#00A87C" fill-opacity="0.5"/>
<path d="M32.092 10.3783C31.8774 10.3245 27.6114 7.5525 22.5815 10.0241L21.5 10.5555L20.4185 10.023C15.4822 7.60041 11.0454 10.346 10.908 10.3783C10.6346 10.5118 10.4046 10.7178 10.2442 10.9731C10.0837 11.2284 9.99913 11.5227 10 11.8228V28.2104C10.0002 28.4385 10.0555 28.6633 10.1613 28.8663C10.2672 29.0693 10.4205 29.2448 10.6088 29.3782C10.797 29.5115 11.0148 29.5991 11.2441 29.6336C11.4735 29.6681 11.708 29.6486 11.9282 29.5767C16.9345 27.9363 20.7005 29.8556 21.327 29.9724C21.4393 30.0092 21.5607 30.0092 21.673 29.9724C22.4189 29.833 25.9992 27.9137 31.0718 29.5767C31.292 29.6486 31.5265 29.6681 31.7559 29.6336C31.9852 29.5991 32.203 29.5115 32.3912 29.3782C32.5795 29.2448 32.7328 29.0693 32.8387 28.8663C32.9445 28.6633 32.9998 28.4385 33 28.2104V11.8228C33.0009 11.5227 32.9163 11.2284 32.7558 10.9731C32.5954 10.7178 32.3654 10.5118 32.092 10.3783V10.3783ZM28.0714 10.1678V14.4586L27.2801 13.9396C27.1901 13.8806 27.0844 13.8491 26.9762 13.8491C26.868 13.8491 26.7622 13.8806 26.6723 13.9396L25.8809 14.4586V10.1678C26.6084 10.0801 27.344 10.0801 28.0714 10.1678V10.1678ZM23.0711 10.9872C23.6185 10.7225 24.1934 10.5165 24.7857 10.373V15.4642C24.7857 15.5617 24.8126 15.6573 24.8635 15.7409C24.9145 15.8245 24.9876 15.893 25.075 15.939C25.1624 15.985 25.2609 16.0067 25.3599 16.002C25.4589 15.9973 25.5548 15.9662 25.6373 15.9121L26.9762 15.0346L28.3151 15.9121C28.3976 15.9662 28.4935 15.9973 28.5925 16.002C28.6915 16.0067 28.79 15.985 28.8774 15.939C28.9648 15.893 29.0379 15.8245 29.0888 15.7409C29.1398 15.6573 29.1667 15.5617 29.1667 15.4642V10.373C30.0163 10.5951 30.8343 10.9207 31.6019 11.342C31.6928 11.3866 31.7692 11.4552 31.8227 11.5401C31.8762 11.625 31.9046 11.7229 31.9048 11.8228V26.023L31.4179 25.8615C28.363 24.8904 25.066 24.9472 22.0476 26.023V11.4906L23.0711 10.9872ZM11.0952 11.8228C11.0953 11.7228 11.1237 11.6248 11.1771 11.5398C11.2306 11.4548 11.3071 11.3861 11.3981 11.3415C11.6242 11.2844 15.4296 8.77565 19.9289 10.9872L20.9524 11.4906V26.023C17.938 24.926 14.6338 24.8691 11.5821 25.8615L11.0952 26.023V11.8228ZM31.4179 28.5549C26.2495 26.8629 21.8472 28.8311 21.5 28.8941C18.3359 27.6453 14.8267 27.5255 11.5821 28.5555C11.5265 28.5737 11.4672 28.5787 11.4093 28.5701C11.3513 28.5614 11.2963 28.5393 11.2487 28.5056C11.2011 28.4719 11.1624 28.4275 11.1357 28.3762C11.1091 28.3248 11.0952 28.268 11.0952 28.2104V27.1579L11.9282 26.8849C16.934 25.244 20.6934 27.1622 21.327 27.2806C21.4385 27.3175 21.5593 27.3175 21.6709 27.2806C22.4167 27.1412 25.997 25.2219 31.0696 26.8849L31.9048 27.1579V28.2104C31.9049 28.268 31.891 28.3248 31.8643 28.3762C31.8376 28.4275 31.7989 28.4718 31.7513 28.5055C31.7037 28.5392 31.6487 28.5612 31.5907 28.5698C31.5327 28.5784 31.4735 28.5733 31.4179 28.5549V28.5549Z" fill="#151A6A"/>
</svg>
