<svg width="90" height="87" viewBox="0 0 90 87" fill="none" xmlns="http://www.w3.org/2000/svg">
<path d="M89.3235 0.515594L89.0814 42.225C88.9391 66.7529 68.9398 86.5214 44.4118 86.379L43.0606 86.3712C19.2789 86.2331 0.11192 66.8423 0.249965 43.0606V43.0606C0.388011 19.2789 19.7788 0.111909 43.5605 0.249954L89.3235 0.515594Z" fill="#00A87C"/>
<path d="M59.6765 35.4286C59.3723 35.4286 59.0805 35.3082 58.8654 35.0938C58.6503 34.8795 58.5294 34.5888 58.5294 34.2857V24H34.4412C33.5285 24 32.6532 24.3612 32.0079 25.0042C31.3626 25.6472 31 26.5193 31 27.4286V68.5714C31 69.4807 31.3626 70.3528 32.0079 70.9958C32.6532 71.6388 33.5285 72 34.4412 72H66.5588C67.4715 72 68.3468 71.6388 68.9921 70.9958C69.6374 70.3528 70 69.4807 70 68.5714V35.4286H59.6765ZM37.8824 33.1429H51.6471C51.9513 33.1429 52.243 33.2633 52.4582 33.4776C52.6733 33.6919 52.7941 33.9826 52.7941 34.2857C52.7941 34.5888 52.6733 34.8795 52.4582 35.0938C52.243 35.3082 51.9513 35.4286 51.6471 35.4286H37.8824C37.5781 35.4286 37.2864 35.3082 37.0713 35.0938C36.8561 34.8795 36.7353 34.5888 36.7353 34.2857C36.7353 33.9826 36.8561 33.6919 37.0713 33.4776C37.2864 33.2633 37.5781 33.1429 37.8824 33.1429ZM63.1176 62.8571H37.8824C37.5781 62.8571 37.2864 62.7367 37.0713 62.5224C36.8561 62.3081 36.7353 62.0174 36.7353 61.7143C36.7353 61.4112 36.8561 61.1205 37.0713 60.9062C37.2864 60.6918 37.5781 60.5714 37.8824 60.5714H63.1176C63.4219 60.5714 63.7136 60.6918 63.9287 60.9062C64.1439 61.1205 64.2647 61.4112 64.2647 61.7143C64.2647 62.0174 64.1439 62.3081 63.9287 62.5224C63.7136 62.7367 63.4219 62.8571 63.1176 62.8571ZM63.1176 53.7143H37.8824C37.5781 53.7143 37.2864 53.5939 37.0713 53.3796C36.8561 53.1652 36.7353 52.8745 36.7353 52.5714C36.7353 52.2683 36.8561 51.9776 37.0713 51.7633C37.2864 51.549 37.5781 51.4286 37.8824 51.4286H63.1176C63.4219 51.4286 63.7136 51.549 63.9287 51.7633C64.1439 51.9776 64.2647 52.2683 64.2647 52.5714C64.2647 52.8745 64.1439 53.1652 63.9287 53.3796C63.7136 53.5939 63.4219 53.7143 63.1176 53.7143ZM63.1176 44.5714H37.8824C37.5781 44.5714 37.2864 44.451 37.0713 44.2367C36.8561 44.0224 36.7353 43.7317 36.7353 43.4286C36.7353 43.1255 36.8561 42.8348 37.0713 42.6204C37.2864 42.4061 37.5781 42.2857 37.8824 42.2857H63.1176C63.4219 42.2857 63.7136 42.4061 63.9287 42.6204C64.1439 42.8348 64.2647 43.1255 64.2647 43.4286C64.2647 43.7317 64.1439 44.0224 63.9287 44.2367C63.7136 44.451 63.4219 44.5714 63.1176 44.5714Z" fill="#076A50" fill-opacity="0.5"/>
<path d="M60 24V34H70L60 24Z" fill="#076A50" fill-opacity="0.5"/>
<path d="M37.8929 11.8571C25.5061 11.8571 15.4286 21.9347 15.4286 34.3214C15.4286 46.7082 25.5061 56.7857 37.8929 56.7857C50.2796 56.7857 60.3572 46.7082 60.3572 34.3214C60.3572 21.9347 50.2796 11.8571 37.8929 11.8571ZM37.8929 55.0047C27.1579 55.0047 17.2096 45.0564 17.2096 34.3214C17.2096 23.5865 27.1579 13.6382 37.8929 13.6382C48.6278 13.6382 58.5761 23.5865 58.5761 34.3214C58.5761 45.0564 48.6278 55.0047 37.8929 55.0047Z" fill="white"/>
<path d="M45.4162 34.0382H38.2115V22.3406C38.2115 21.514 38.114 20.9643 37.2858 20.9643C36.4576 20.9643 36.4307 21.514 36.4307 22.3406V34.3214C36.4307 35.1481 37.1 35.819 37.9282 35.819H45.4164C46.2446 35.819 46.9139 35.7552 46.9139 34.9286C46.9139 34.102 46.2444 34.0382 45.4162 34.0382Z" fill="white"/>
</svg>
