<svg width="90" height="87" viewBox="0 0 90 87" fill="none" xmlns="http://www.w3.org/2000/svg">
<path d="M89.3235 0.515594L89.0814 42.225C88.9391 66.7529 68.9398 86.5214 44.4118 86.379L43.0606 86.3712C19.2789 86.2331 0.11192 66.8423 0.249965 43.0606V43.0606C0.388011 19.2789 19.7788 0.111909 43.5605 0.249954L89.3235 0.515594Z" fill="#00A87C"/>
<path d="M75.4294 47.0001L53.4169 38.0699C53.3048 38.0237 53.1846 38 53.0632 38C52.9417 38 52.8215 38.0237 52.7094 38.0699L30.5608 47.3228C30.3938 47.3927 30.2514 47.5099 30.1517 47.6596C30.0519 47.8093 29.9991 47.9847 30 48.164C30.0009 48.3432 30.0554 48.5181 30.1566 48.6668C30.2579 48.8155 30.4014 48.9314 30.5691 48.9997L52.5815 57.9299C52.6937 57.9762 52.8141 58 52.9357 58C53.0573 58 53.1777 57.9762 53.2899 57.9299L75.4386 48.678C75.6058 48.608 75.7484 48.4908 75.8483 48.3409C75.9482 48.1911 76.001 48.0154 76 47.836C75.999 47.6566 75.9443 47.4815 75.8427 47.3327C75.7412 47.184 75.5974 47.0682 75.4294 47.0001V47.0001Z" fill="#076A50" fill-opacity="0.5"/>
<path d="M52.584 59.6332L37 53.238V61.429C37 61.5632 37.0287 61.6959 37.0842 61.8181C37.1398 61.9402 37.2208 62.0491 37.3219 62.1374C41.6696 65.9179 47.2379 68 53.0005 68C58.763 68 64.3314 65.9179 68.6791 62.1374C68.78 62.049 68.8608 61.9401 68.9162 61.8179C68.9715 61.6958 69.0001 61.5632 69 61.429V53L53.3078 59.6275C53.1935 59.6762 53.0707 59.7017 52.9464 59.7027C52.8222 59.7036 52.699 59.68 52.584 59.6332Z" fill="#076A50" fill-opacity="0.5"/>
<path d="M56.4604 15.3629C56.0964 15.2706 48.8629 10.5186 40.3339 14.7556L38.5 15.6665L36.6661 14.7538C28.2959 10.6007 20.7727 15.3075 20.5396 15.3629C20.076 15.5917 19.6861 15.9448 19.414 16.3824C19.1419 16.82 18.9985 17.3246 19 17.839V45.9321C19.0004 46.3231 19.0941 46.7085 19.2736 47.0566C19.453 47.4046 19.7131 47.7053 20.0323 47.934C20.3514 48.1627 20.7207 48.3128 21.1096 48.3719C21.4986 48.4311 21.8961 48.3977 22.2695 48.2744C30.7585 45.4623 37.1443 48.7524 38.2066 48.9527C38.397 49.0158 38.603 49.0158 38.7934 48.9527C40.0581 48.7137 46.1291 45.4235 54.7305 48.2744C55.1039 48.3977 55.5014 48.4311 55.8904 48.3719C56.2793 48.3128 56.6486 48.1627 56.9677 47.934C57.2869 47.7053 57.547 47.4046 57.7264 47.0566C57.9059 46.7085 57.9996 46.3231 58 45.9321V17.839C58.0015 17.3246 57.8581 16.82 57.586 16.3824C57.3139 15.9448 56.924 15.5917 56.4604 15.3629V15.3629ZM49.6429 15.002V22.3575L48.3011 21.4678C48.1485 21.3667 47.9691 21.3127 47.7857 21.3127C47.6023 21.3127 47.4229 21.3667 47.2704 21.4678L45.9286 22.3575V15.002C47.162 14.8516 48.4094 14.8516 49.6429 15.002V15.002ZM41.1641 16.4067C42.0923 15.9528 43.067 15.5998 44.0714 15.3536V24.0815C44.0714 24.2486 44.117 24.4125 44.2034 24.5559C44.2898 24.6992 44.4137 24.8166 44.5619 24.8954C44.7102 24.9742 44.8771 25.0116 45.045 25.0034C45.213 24.9953 45.3755 24.9421 45.5154 24.8494L47.7857 23.345L50.0561 24.8494C50.1959 24.9421 50.3585 24.9953 50.5264 25.0034C50.6943 25.0116 50.8613 24.9742 51.0095 24.8954C51.1577 24.8166 51.2816 24.6992 51.368 24.5559C51.4544 24.4125 51.5 24.2486 51.5 24.0815V15.3536C52.9406 15.7345 54.3278 16.2926 55.6293 17.0149C55.7834 17.0914 55.9131 17.209 56.0037 17.3545C56.0944 17.5001 56.1426 17.6678 56.1428 17.839V42.1823L55.3173 41.9055C50.1372 40.2406 44.5468 40.3381 39.4286 42.1823V17.2696L41.1641 16.4067ZM20.8572 17.839C20.8572 17.6677 20.9053 17.4997 20.996 17.354C21.0867 17.2083 21.2164 17.0905 21.3707 17.0139C21.7542 16.9161 28.2068 12.6154 35.8359 16.4067L37.5714 17.2696V42.1823C32.46 40.3018 26.8572 40.2041 21.6827 41.9055L20.8572 42.1823V17.839ZM55.3173 46.5227C46.5535 43.622 39.0887 46.9962 38.5 47.1041C33.1347 44.9633 27.1844 44.7579 21.6827 46.5236C21.5884 46.555 21.4879 46.5636 21.3896 46.5487C21.2913 46.5338 21.198 46.4959 21.1174 46.4381C21.0367 46.3803 20.9711 46.3043 20.9258 46.2163C20.8806 46.1283 20.857 46.0309 20.8572 45.9321V44.1278L22.2695 43.6599C30.7576 40.8469 37.1322 44.1352 38.2066 44.3382C38.3957 44.4015 38.6005 44.4015 38.7897 44.3382C40.0544 44.0992 46.1254 40.809 54.7268 43.6599L56.1428 44.1278V45.9321C56.143 46.0309 56.1195 46.1283 56.0743 46.2163C56.029 46.3043 55.9633 46.3803 55.8827 46.438C55.802 46.4957 55.7086 46.5335 55.6103 46.5483C55.512 46.563 55.4116 46.5542 55.3173 46.5227V46.5227Z" fill="white"/>
</svg>
