<svg width="121" height="120" viewBox="0 0 121 120" fill="none" xmlns="http://www.w3.org/2000/svg">
<path d="M120.405 59.7645H60.33V0C93.4938 0 120.405 26.7723 120.405 59.7645Z" fill="#FF9E32"/>
<path d="M30.2922 110.967C46.8816 110.967 60.3299 97.5879 60.3299 81.0844C60.3299 64.5809 46.8816 51.2021 30.2922 51.2021C13.7028 51.2021 0.254395 64.5809 0.254395 81.0844C0.254395 97.5879 13.7028 110.967 30.2922 110.967Z" fill="#00A87C"/>
<path d="M120.405 119.529C87.2416 119.529 60.33 92.7567 60.33 59.7645H120.405V119.529Z" fill="#046FB7"/>
<path d="M3.15836 59.7645H0.254395V0H60.3299V2.88892C60.3299 34.3059 34.7388 59.7645 3.15836 59.7645Z" fill="#74DBEE"/>
</svg>
