<svg width="127" height="187" viewBox="0 0 127 187" fill="none" xmlns="http://www.w3.org/2000/svg">
<path d="M77 132.5H75.5V135.4H77V132.5Z" fill="black"/>
<path d="M77 127.3H75.5V130.2H77V127.3Z" fill="black"/>
<path d="M77 122.2H75.5V125.1H77V122.2Z" fill="black"/>
<path d="M77 148.1H75.5V151H77V148.1Z" fill="black"/>
<path d="M77 142.9H75.5V145.8H77V142.9Z" fill="black"/>
<path d="M77 137.7H75.5V140.6H77V137.7Z" fill="black"/>
<g filter="url(#filter0_d_17:162)">
<circle cx="77" cy="158" r="17" fill="white"/>
</g>
<circle cx="77" cy="158" r="10" fill="#00A87C"/>
<path d="M123.411 119.24L123.06 58.7997C122.875 26.7985 96.782 1.00703 64.7808 1.19279L58.5319 1.22906C26.5307 1.41482 0.739237 27.5075 0.924994 59.5087L0.939491 62.0061C1.12525 94.0073 27.2179 119.799 59.2191 119.613L123.411 119.24Z" stroke="#00A87C" stroke-width="1.17059"/>
<path d="M96.8753 70.2737C92.3986 70.2737 92.2134 72.2541 88.2961 72.2541C84.4264 72.2541 84.159 70.2737 79.7129 70.2737C75.2411 70.2737 75.051 72.2541 71.1278 72.2541H63.1754C63.8062 72.0442 64.4359 71.8323 65.0568 71.6016C65.2755 70.4793 65.2134 69.3203 64.8761 68.2278C64.5387 67.1353 63.9366 66.1431 63.1231 65.3395C62.3097 64.5358 61.3103 63.9457 60.2138 63.6217C59.1172 63.2976 57.9576 63.2495 56.838 63.4818C55.7217 66.6008 54.8772 69.8105 54.314 73.075C54.2893 73.217 54.296 73.3627 54.3334 73.5018C54.3709 73.6409 54.4383 73.7702 54.5309 73.8806C54.6234 73.9911 54.739 74.0799 54.8695 74.1411C55 74.2022 55.1423 74.2341 55.2864 74.2346H71.1298C75.6105 74.2346 75.7838 72.2541 79.7149 72.2541C83.5847 72.2541 83.8511 74.2346 88.2981 74.2346C92.7679 74.2346 92.966 72.2541 96.8773 72.2541C97.1399 72.2541 97.3918 72.1498 97.5775 71.9641C97.7632 71.7784 97.8675 71.5266 97.8675 71.2639C97.8675 71.0013 97.7632 70.7494 97.5775 70.5637C97.3918 70.378 97.1399 70.2737 96.8773 70.2737H96.8753Z" fill="#00A87C" fill-opacity="0.5"/>
<path d="M102.794 44.748L99.0627 40.9634L100.143 39.8613C100.793 39.1954 101.156 38.3021 101.156 37.3719C101.156 36.4416 100.793 35.5483 100.143 34.8825L93.0789 27.7074C92.4174 27.0636 91.5308 26.7034 90.6078 26.7034C89.6848 26.7034 88.7982 27.0636 88.1367 27.7074L84.7948 31.1008C85.1172 31.2477 85.4107 31.4513 85.6612 31.7019L96.2565 42.4606C96.4831 42.69 96.6707 42.9549 96.812 43.2448L97.6725 42.3705L101.383 46.1333C101.669 46.4273 101.829 46.8215 101.829 47.2319C101.829 47.6423 101.669 48.0366 101.383 48.3306L87.2544 62.6837C87.1549 62.7744 87.0749 62.8844 87.0193 63.007C86.9637 63.1296 86.9336 63.2623 86.9311 63.3969C86.9285 63.5315 86.9534 63.6653 87.0043 63.7899C87.0551 63.9146 87.1309 64.0276 87.2269 64.122C87.3229 64.2164 87.4372 64.2902 87.5627 64.339C87.6882 64.3877 87.8223 64.4103 87.9569 64.4055C88.0915 64.4006 88.2236 64.3683 88.3453 64.3107C88.4669 64.253 88.5756 64.1711 88.6645 64.07L102.795 49.7218C103.443 49.0561 103.805 48.1637 103.805 47.2347C103.805 46.3057 103.442 45.4134 102.794 44.748Z" fill="#00A87C" fill-opacity="0.5"/>
<path d="M67.1442 70.7787C70.2849 69.4687 73.297 67.8692 76.1413 66.0009C84.1068 60.7116 90.6013 53.4891 95.0177 45.0084C95.1148 44.8226 95.1504 44.6108 95.1194 44.4035C95.0885 44.1962 94.9925 44.0041 94.8454 43.8548L84.2501 33.0922C84.0997 32.9396 83.9038 32.8399 83.6918 32.8081C83.4799 32.7763 83.2634 32.8141 83.0747 32.9159C71.509 39.1201 62.4987 49.2007 57.6263 61.3875C58.8888 61.2958 60.1565 61.4747 61.3443 61.9125C62.5321 62.3502 63.6128 63.0366 64.5139 63.9257C65.415 64.8148 66.1158 65.8862 66.5694 67.068C67.0231 68.2499 67.219 69.515 67.1442 70.7787Z" fill="#00A87C" fill-opacity="0.5"/>
<path d="M80.5401 21.9999H36.9706C36.1828 21.9999 35.4272 22.3129 34.8701 22.87C34.313 23.4271 34 24.1827 34 24.9705V52.6965C34 53.4844 34.313 54.24 34.8701 54.7971C35.4272 55.3542 36.1828 55.6672 36.9706 55.6672H53.626L51.9754 64.5791H50.8336C50.571 64.5791 50.3192 64.6834 50.1334 64.8691C49.9477 65.0548 49.8434 65.3067 49.8434 65.5693C49.8434 65.8319 49.9477 66.0838 50.1334 66.2695C50.3192 66.4552 50.571 66.5595 50.8336 66.5595H66.6771C66.9397 66.5595 67.1915 66.4552 67.3772 66.2695C67.563 66.0838 67.6673 65.8319 67.6673 65.5693C67.6673 65.3067 67.563 65.0548 67.3772 64.8691C67.1915 64.6834 66.9397 64.5791 66.6771 64.5791H65.5353L63.8847 55.6672H80.5401C81.3279 55.6672 82.0835 55.3542 82.6406 54.7971C83.1977 54.24 83.5107 53.4844 83.5107 52.6965V24.9705C83.5107 24.1827 83.1977 23.4271 82.6406 22.87C82.0835 22.3129 81.3279 21.9999 80.5401 21.9999ZM63.5272 64.5791H53.9835L55.6332 55.6672H61.8775L63.5272 64.5791ZM81.5303 52.6965C81.5303 52.9591 81.4259 53.211 81.2402 53.3967C81.0545 53.5824 80.8027 53.6867 80.5401 53.6867H36.9706C36.708 53.6867 36.4562 53.5824 36.2705 53.3967C36.0848 53.211 35.9804 52.9591 35.9804 52.6965V24.9705C35.9804 24.7079 36.0848 24.456 36.2705 24.2703C36.4562 24.0846 36.708 23.9803 36.9706 23.9803H80.5401C80.8027 23.9803 81.0545 24.0846 81.2402 24.2703C81.4259 24.456 81.5303 24.7079 81.5303 24.9705V52.6965Z" fill="#151A6A"/>
<path d="M76.5792 25.9607H40.9315C40.1436 25.9607 39.388 26.2737 38.8309 26.8308C38.2738 27.3879 37.9609 28.1435 37.9609 28.9314V44.7748C37.9609 45.5627 38.2738 46.3182 38.8309 46.8753C39.388 47.4325 40.1436 47.7454 40.9315 47.7454H76.5792C77.3671 47.7454 78.1227 47.4325 78.6798 46.8753C79.2369 46.3182 79.5498 45.5627 79.5498 44.7748V28.9314C79.5498 28.1435 79.2369 27.3879 78.6798 26.8308C78.1227 26.2737 77.3671 25.9607 76.5792 25.9607ZM77.5694 44.7748C77.5694 45.0374 77.4651 45.2893 77.2794 45.475C77.0937 45.6607 76.8418 45.765 76.5792 45.765H40.9315C40.6689 45.765 40.417 45.6607 40.2313 45.475C40.0456 45.2893 39.9413 45.0374 39.9413 44.7748V28.9314C39.9413 28.6687 40.0456 28.4169 40.2313 28.2312C40.417 28.0455 40.6689 27.9412 40.9315 27.9412H76.5792C76.8418 27.9412 77.0937 28.0455 77.2794 28.2312C77.4651 28.4169 77.5694 28.6687 77.5694 28.9314V44.7748Z" fill="#151A6A"/>
<path d="M60.7358 49.7259H56.7749C56.5123 49.7259 56.2604 49.8302 56.0747 50.0159C55.889 50.2016 55.7847 50.4535 55.7847 50.7161C55.7847 50.9787 55.889 51.2306 56.0747 51.4163C56.2604 51.602 56.5123 51.7063 56.7749 51.7063H60.7358C60.9984 51.7063 61.2503 51.602 61.436 51.4163C61.6217 51.2306 61.726 50.9787 61.726 50.7161C61.726 50.4535 61.6217 50.2016 61.436 50.0159C61.2503 49.8302 60.9984 49.7259 60.7358 49.7259Z" fill="#151A6A"/>
<path d="M60.3655 99.9998H42.4055V85.7198H45.4255V97.4798H49.8655V85.7198H52.9055V97.4798H57.3455V85.7198H60.3655V99.9998ZM72.708 99.9998L71.668 96.5998H66.468L65.428 99.9998H62.168L67.208 85.6598H70.908L75.968 99.9998H72.708ZM69.908 90.7398C69.8413 90.5132 69.7546 90.2265 69.648 89.8798C69.5413 89.5332 69.4346 89.1798 69.328 88.8198C69.2213 88.4598 69.1346 88.1465 69.068 87.8798C69.0013 88.1465 68.908 88.4798 68.788 88.8798C68.6813 89.2665 68.5746 89.6398 68.468 89.9998C68.3746 90.3465 68.3013 90.5932 68.248 90.7398L67.228 94.0598H70.948L69.908 90.7398ZM86.7965 85.7198V88.2198H80.7965V99.9998H77.7765V85.7198H86.7965ZM93.5675 99.9998H102.987V97.7998H96.6075L100.687 93.8998C101.947 92.6998 102.967 91.4398 102.967 89.6198C102.967 86.8998 100.707 85.4798 98.2475 85.4798C95.6475 85.4798 93.7475 87.1998 93.4675 89.5398L95.8075 89.8998C95.9875 88.5198 96.8475 87.4798 98.2075 87.4798C99.4875 87.4798 100.467 88.3398 100.467 89.6598C100.467 90.7598 99.9075 91.5798 99.0275 92.4398L93.5675 97.7998V99.9998Z" fill="#061058"/>
<defs>
<filter id="filter0_d_17:162" x="54" y="141" width="46" height="46" filterUnits="userSpaceOnUse" color-interpolation-filters="sRGB">
<feFlood flood-opacity="0" result="BackgroundImageFix"/>
<feColorMatrix in="SourceAlpha" type="matrix" values="0 0 0 0 0 0 0 0 0 0 0 0 0 0 0 0 0 0 127 0" result="hardAlpha"/>
<feOffset dy="6"/>
<feGaussianBlur stdDeviation="3"/>
<feColorMatrix type="matrix" values="0 0 0 0 0 0 0 0 0 0 0 0 0 0 0 0 0 0 0.25 0"/>
<feBlend mode="normal" in2="BackgroundImageFix" result="effect1_dropShadow_17:162"/>
<feBlend mode="normal" in="SourceGraphic" in2="effect1_dropShadow_17:162" result="shape"/>
</filter>
</defs>
</svg>
