<svg width="127" height="187" viewBox="0 0 127 187" fill="none" xmlns="http://www.w3.org/2000/svg">
<path d="M77 132.5H75.5V135.4H77V132.5Z" fill="black"/>
<path d="M77 127.3H75.5V130.2H77V127.3Z" fill="black"/>
<path d="M77 122.2H75.5V125.1H77V122.2Z" fill="black"/>
<path d="M77 148.1H75.5V151H77V148.1Z" fill="black"/>
<path d="M77 142.9H75.5V145.8H77V142.9Z" fill="black"/>
<path d="M77 137.7H75.5V140.6H77V137.7Z" fill="black"/>
<g filter="url(#filter0_d_17:196)">
<circle cx="77" cy="158" r="17" fill="white"/>
</g>
<circle cx="77" cy="158" r="10" fill="#00A87C"/>
<path d="M123.411 119.24L123.06 58.7997C122.875 26.7985 96.782 1.00703 64.7809 1.19279L58.532 1.22906C26.5308 1.41482 0.739267 27.5075 0.925024 59.5087L0.939521 62.0061C1.12528 94.0073 27.218 119.799 59.2191 119.613L123.411 119.24Z" stroke="#00A87C" stroke-width="1.17059"/>
<path d="M60.3655 99.9998H42.4055V85.7198H45.4255V97.4798H49.8655V85.7198H52.9055V97.4798H57.3455V85.7198H60.3655V99.9998ZM72.708 99.9998L71.668 96.5998H66.468L65.428 99.9998H62.168L67.208 85.6598H70.908L75.968 99.9998H72.708ZM69.908 90.7398C69.8413 90.5132 69.7546 90.2265 69.648 89.8798C69.5413 89.5332 69.4346 89.1798 69.328 88.8198C69.2213 88.4598 69.1346 88.1465 69.068 87.8798C69.0013 88.1465 68.908 88.4798 68.788 88.8798C68.6813 89.2665 68.5746 89.6398 68.468 89.9998C68.3746 90.3465 68.3013 90.5932 68.248 90.7398L67.228 94.0598H70.948L69.908 90.7398ZM86.7966 85.7198V88.2198H80.7966V99.9998H77.7766V85.7198H86.7966ZM97.7675 99.9998H100.168V85.8398H97.9875L93.5675 89.3998L94.9675 91.0598L97.7675 88.7598V99.9998Z" fill="#061058"/>
<path d="M80 36.1666C76.2422 36.1666 72.5687 37.2809 69.4442 39.3687C66.3196 41.4564 63.8844 44.4238 62.4463 47.8956C61.0082 51.3674 60.632 55.1877 61.3651 58.8733C62.0982 62.5589 63.9078 65.9444 66.565 68.6016C69.2222 71.2588 72.6077 73.0684 76.2933 73.8015C79.9789 74.5346 83.7992 74.1584 87.271 72.7203C90.7428 71.2822 93.7102 68.847 95.7979 65.7224C97.8857 62.5979 99 58.9244 99 55.1666C98.9945 50.1292 96.9909 45.2996 93.4289 41.7376C89.8669 38.1757 85.0374 36.1721 80 36.1666ZM88.7056 52.4523L79.3251 60.2414C79.0769 60.4466 78.7707 60.5688 78.4495 60.5907C78.1282 60.6126 77.8082 60.5332 77.5345 60.3635L71.4645 56.5907C71.2785 56.4917 71.1148 56.3556 70.9836 56.1908C70.8524 56.0259 70.7564 55.8359 70.7017 55.6324C70.6469 55.429 70.6346 55.2164 70.6654 55.008C70.6962 54.7996 70.7695 54.5997 70.8807 54.4208C70.9919 54.2418 71.1387 54.0877 71.312 53.9678C71.4853 53.848 71.6814 53.765 71.888 53.7241C72.0947 53.6831 72.3076 53.6851 72.5135 53.7298C72.7194 53.7745 72.9139 53.8611 73.0849 53.9841L78.2149 57.1734L86.745 50.0918C87.0612 49.8648 87.4516 49.7661 87.8376 49.8156C88.2237 49.8651 88.5766 50.0591 88.8253 50.3584C89.0739 50.6578 89.1999 51.0404 89.1777 51.4289C89.1555 51.8175 88.9868 52.1832 88.7056 52.4523Z" fill="#00A87C" fill-opacity="0.5"/>
<path d="M67.5 44.0999H53.1C50.9525 44.1025 48.8938 44.9567 47.3753 46.4752C45.8569 47.9937 45.0026 50.0524 45 52.1999V60.2999C45 61.0159 45.2845 61.7027 45.7908 62.209C46.2972 62.7154 46.9839 62.9999 47.7 62.9999H72.9C73.6161 62.9999 74.3028 62.7154 74.8092 62.209C75.3155 61.7027 75.6 61.0159 75.6 60.2999V52.1999C75.5974 50.0524 74.7431 47.9937 73.2247 46.4752C71.7062 44.9567 69.6474 44.1025 67.5 44.0999ZM73.8 60.2999C73.8 60.5386 73.7052 60.7675 73.5364 60.9363C73.3676 61.105 73.1387 61.1999 72.9 61.1999H47.7C47.4613 61.1999 47.2324 61.105 47.0636 60.9363C46.8948 60.7675 46.8 60.5386 46.8 60.2999V52.1999C46.8019 50.5296 47.4663 48.9283 48.6473 47.7472C49.8284 46.5661 51.4297 45.9018 53.1 45.8999H67.5C69.1703 45.9018 70.7716 46.5661 71.9527 47.7472C73.1337 48.9283 73.7981 50.5296 73.8 52.1999V60.2999Z" fill="#151A6A"/>
<path d="M60.3 41.3999C62.8293 41.397 65.2542 40.391 67.0426 38.6025C68.8311 36.814 69.8371 34.3892 69.84 31.8599V27.5399C69.84 25.0097 68.8349 22.5832 67.0458 20.7941C65.2567 19.005 62.8302 17.9999 60.3 17.9999C57.7698 17.9999 55.3433 19.005 53.5542 20.7941C51.7651 22.5832 50.76 25.0097 50.76 27.5399V31.8599C50.7629 34.3892 51.7689 36.814 53.5574 38.6025C55.3458 40.391 57.7707 41.397 60.3 41.3999ZM52.56 27.5399C52.56 25.4871 53.3755 23.5184 54.827 22.0669C56.2785 20.6153 58.2472 19.7999 60.3 19.7999C62.3528 19.7999 64.3215 20.6153 65.773 22.0669C67.2245 23.5184 68.04 25.4871 68.04 27.5399V31.8599C68.04 33.9126 67.2245 35.8813 65.773 37.3329C64.3215 38.7844 62.3528 39.5999 60.3 39.5999C58.2472 39.5999 56.2785 38.7844 54.827 37.3329C53.3755 35.8813 52.56 33.9126 52.56 31.8599V27.5399Z" fill="#151A6A"/>
<path d="M60.3 36.8999C61.7317 36.8984 63.1044 36.3291 64.1168 35.3167C65.1292 34.3043 65.6986 32.9316 65.7 31.4999C65.7 31.2612 65.6052 31.0323 65.4364 30.8635C65.2676 30.6947 65.0387 30.5999 64.8 30.5999C64.5613 30.5999 64.3324 30.6947 64.1636 30.8635C63.9948 31.0323 63.9 31.2612 63.9 31.4999C63.9 32.4546 63.5207 33.3703 62.8456 34.0455C62.1704 34.7206 61.2548 35.0999 60.3 35.0999C59.3452 35.0999 58.4295 34.7206 57.7544 34.0455C57.0793 33.3703 56.7 32.4546 56.7 31.4999C56.7 31.2612 56.6052 31.0323 56.4364 30.8635C56.2676 30.6947 56.0387 30.5999 55.8 30.5999C55.5613 30.5999 55.3324 30.6947 55.1636 30.8635C54.9948 31.0323 54.9 31.2612 54.9 31.4999C54.9014 32.9316 55.4708 34.3043 56.4832 35.3167C57.4956 36.3291 58.8683 36.8984 60.3 36.8999Z" fill="#151A6A"/>
<defs>
<filter id="filter0_d_17:196" x="54" y="141" width="46" height="46" filterUnits="userSpaceOnUse" color-interpolation-filters="sRGB">
<feFlood flood-opacity="0" result="BackgroundImageFix"/>
<feColorMatrix in="SourceAlpha" type="matrix" values="0 0 0 0 0 0 0 0 0 0 0 0 0 0 0 0 0 0 127 0" result="hardAlpha"/>
<feOffset dy="6"/>
<feGaussianBlur stdDeviation="3"/>
<feColorMatrix type="matrix" values="0 0 0 0 0 0 0 0 0 0 0 0 0 0 0 0 0 0 0.25 0"/>
<feBlend mode="normal" in2="BackgroundImageFix" result="effect1_dropShadow_17:196"/>
<feBlend mode="normal" in="SourceGraphic" in2="effect1_dropShadow_17:196" result="shape"/>
</filter>
</defs>
</svg>
