<svg width="85" height="64" viewBox="0 0 85 64" fill="none" xmlns="http://www.w3.org/2000/svg">
<path d="M42.2515 52.8C45.0712 50.1 46.6824 48.9 50.1064 46.7C50.0057 45.8 50.0057 45.4 49.905 44.6C46.5817 46.7 45.0712 48 42.3522 50.6C42.2515 51.4 42.2515 51.9 42.2515 52.8Z" fill="#3B68CF"/>
<path d="M46.5817 42.8C49.6029 40.4 51.3148 39.5 54.5374 37.9C54.9402 39.2 55.0409 39.8 55.4437 41.1C51.8183 42.8 50.0057 43.9 46.7831 46.3C46.7831 44.8 46.6824 44.2 46.5817 42.8Z" fill="#83CD38"/>
<path d="M52.7247 40.2C56.2494 38.3 58.062 37.5 61.7881 36.9C62.5937 38.2 62.9965 38.8 63.8022 40.2C59.4719 41.1 57.3571 41.9 53.5303 44C53.2282 42.4 53.0268 41.7 52.7247 40.2Z" fill="#4675DF"/>
<path d="M44.5677 55.5C47.5888 52.9 49.3008 51.7 52.9261 49.5C53.0268 50.2 53.1275 50.5 53.2283 51.3C49.4015 53.6 47.6895 54.9 44.5677 57.6C44.6684 56.7 44.6684 56.3 44.5677 55.5Z" fill="#FF6742"/>
<path d="M44.5677 53.7C47.5888 51.2 49.2001 49.9 52.7247 47.9C52.8254 48.6 52.8254 48.9 52.9261 49.5C49.3008 51.6 47.5888 52.9 44.5677 55.5C44.5677 54.7 44.5677 54.4 44.5677 53.7Z" fill="#FF7547"/>
<path d="M42.2515 57.1C44.0641 55.4 45.0712 54.5 47.186 52.9C47.0853 51.8 47.0853 51.2 47.0853 50.1C44.9705 51.7 44.0641 52.5 42.2515 54.2C42.2515 55.3 42.2515 55.9 42.2515 57.1Z" fill="#E33C58"/>
<path d="M54.336 46.2C56.5515 45 57.8606 44.5 60.2775 43.6C60.5796 44.3 60.6803 44.7 60.9824 45.4C58.3641 46.3 57.1557 46.9 54.7388 48.1C54.5374 47.4 54.5374 47 54.336 46.2Z" fill="#FF5780"/>
<path d="M42.2515 55.3C45.474 52.3 47.2867 50.8 51.3148 48.3C51.2141 47.3 51.1134 46.7 50.912 45.8C47.0853 48.2 45.3733 49.6 42.2515 52.5C42.2515 53.6 42.2515 54.1 42.2515 55.3Z" fill="#EC3A6C"/>
<path d="M59.3712 41.2C57.5585 41.9 55.8465 42.6 53.5303 43.9C53.4296 43.2 53.3289 42.7 53.1275 42.2C52.1205 42.8 51.1134 43.3 50.2071 43.9C50.2071 44.2 50.3078 44.5 50.3078 44.9C50.2071 45 50.0057 45 49.905 45.2C49.905 45.6 50.0057 45.9 50.0057 46.5C50.3078 46.3 50.6099 46.1 50.912 45.9C51.0127 46.4 51.0127 46.9 51.1135 47.3C54.1346 45.3 56.6522 44.1 60.8818 42.8C60.7811 42.7 60.7811 42.6 60.6804 42.4C60.4789 42.5 60.2775 42.5 59.9754 42.7C59.774 42 59.6733 41.7 59.3712 41.2Z" fill="#33DAD3"/>
<path d="M49.905 45.1C49.2001 45.5 48.5958 45.9 48.0923 46.3C48.193 46.7 48.193 47.1 48.193 47.6C48.7972 47.2 49.4015 46.8 50.0057 46.4C50.0057 45.9 49.905 45.6 49.905 45.1Z" fill="#0C59AB"/>
<path d="M53.1275 41.7C52.1205 42.2 51.3148 42.8 50.2071 43.5C50.2071 43.6 50.2071 43.7 50.3078 43.9C51.2141 43.3 52.1205 42.8 53.2282 42.2C53.1275 42 53.1275 41.9 53.1275 41.7Z" fill="#1AAF2E"/>
<path d="M59.3712 39.2C56.7529 40 54.9402 40.8 53.1275 41.7C53.1275 41.8 53.2282 42 53.2282 42.1C53.3289 42.6 53.4296 43.1 53.6311 43.8C55.9473 42.5 57.6592 41.8 59.4719 41.1C59.3712 40.9 59.3712 40.7 59.1698 40.4C59.4719 40.3 59.6733 40.3 59.8747 40.2C59.6733 40 59.4719 39.7 59.3712 39.2Z" fill="#0E64B9"/>
<path d="M50.912 45.8C50.6099 45.9 50.3078 46.2 50.0057 46.4C49.3008 46.8 48.6965 47.2 48.193 47.6C48.2937 48 48.2937 48.6 48.2937 49.2C49.3008 48.5 50.2071 47.9 51.1134 47.3C51.1134 46.8 51.1134 46.3 50.912 45.8Z" fill="#2F3259"/>
<path d="M62.1909 42.5C63.8022 42.1 64.6078 41.9 66.3198 41.7C66.5212 42 66.6219 42.2 66.8233 42.5C65.1113 42.7 64.3057 42.9 62.6944 43.4C62.493 43.1 62.3923 42.8 62.1909 42.5Z" fill="#5BE2DE"/>
<path d="M66.5212 39C65.3127 39.1 64.3057 39.2 63.3994 39.4C63.5001 39.6 63.7015 39.8 63.8022 40.1C62.3923 40.4 61.1839 40.7 60.1768 41C60.2775 41.4 60.5796 41.8 60.6803 42.3C63.3994 41.5 64.9099 41.1 67.931 40.9C67.3268 40.2 67.1254 39.8 66.5212 39Z" fill="#2BA2CC"/>
<path d="M63.3993 39.4C62.2916 39.5 61.2846 39.8 59.8747 40.3C59.9754 40.5 59.9754 40.7 60.1768 41C61.1839 40.7 62.3923 40.4 63.8022 40.1C63.7015 39.9 63.5001 39.7 63.3993 39.4Z" fill="#0C4AB2"/>
<path d="M60.1768 41C59.8747 41.1 59.6733 41.1 59.4719 41.2C59.6733 41.6 59.8747 42 60.0761 42.6C60.2775 42.5 60.4789 42.4 60.781 42.3C60.5796 41.8 60.2775 41.4 60.1768 41Z" fill="#098AA9"/>
<path d="M59.8747 40.3C59.6733 40.4 59.4719 40.4 59.1698 40.5C59.2705 40.8 59.3712 40.9 59.4719 41.2C59.6733 41.1 59.8747 41.1 60.1768 41C59.9754 40.8 59.9754 40.6 59.8747 40.3Z" fill="#024094"/>
<path d="M70.6501 42.4C72.4627 42.4 73.3691 42.4 75.081 42.6C75.3832 43 75.4839 43.1 75.786 43.4C73.9733 43.2 73.067 43.2 71.2543 43.2C71.0529 42.9 70.9522 42.8 70.6501 42.4Z" fill="#FFC0C4"/>
<path d="M62.2916 31.7C63.3994 31.6 63.9029 31.7 65.0106 31.8C65.2121 32.2 65.4135 32.3 65.7156 32.6C64.6078 32.5 64.1043 32.5 62.9966 32.5C62.6944 32.1 62.493 32 62.2916 31.7Z" fill="#4574DE"/>
<path d="M69.0388 40.2C70.4487 40.1 71.1536 40.2 72.5634 40.3C72.8656 40.7 72.9663 40.8 73.2684 41.2C71.9592 41 71.2543 41 69.7437 41C69.4416 40.7 69.3409 40.5 69.0388 40.2Z" fill="#53B2DE"/>
<path d="M71.6571 39C72.9663 39.1 73.6712 39.3 74.9803 39.7C75.3832 40.1 75.5846 40.2 75.9874 40.6C74.5775 40.2 73.8726 40.1 72.4627 39.9C72.1606 39.4 71.9592 39.3 71.6571 39Z" fill="#AEE0F9"/>
<path d="M64.7085 37.7C66.0177 37.6 66.6219 37.6 67.931 37.6C68.2331 37.9 68.3339 38.1 68.636 38.4C67.3268 38.4 66.7226 38.4 65.3127 38.5C65.1113 38.2 65.0106 38 64.7085 37.7Z" fill="#7097FC"/>
<path d="M61.9895 33.7C62.9965 33.6 63.6008 33.6 64.6078 33.6C64.8092 34 65.0106 34.1 65.3127 34.4C64.205 34.4 63.7015 34.4 62.5937 34.5C62.2916 34.1 62.1909 34 61.9895 33.7Z" fill="#FFF001"/>
<path d="M52.4226 37.2C53.4297 36.7 53.9332 36.4 54.9402 35.9C55.0409 36.3 55.1416 36.5 55.2423 36.8C54.2353 37.3 53.6311 37.5 52.5233 38.1C52.5233 37.8 52.5233 37.6 52.4226 37.2Z" fill="#3DB399"/>
<path d="M51.5163 34.4C52.5233 33.8 53.1275 33.6 54.1346 33.1C54.2353 33.5 54.2353 33.6 54.336 34C53.3289 34.4 52.7247 34.7 51.7177 35.3C51.7177 34.9 51.617 34.8 51.5163 34.4Z" fill="#045999"/>
<path d="M49.0994 36.9C50.1064 36.2 50.7106 35.9 51.8184 35.3C51.9191 35.7 51.9191 35.9 51.9191 36.3C50.8113 36.9 50.3078 37.2 49.2001 37.9C49.2001 37.5 49.2001 37.4 49.0994 36.9Z" fill="#006181"/>
<path d="M46.6824 43.6C45.1719 44.6 43.9634 45.7 42.2515 47.4C42.2515 48.7 42.2515 49.4 42.2515 50.6C44.467 48.5 45.8768 47.3 48.0923 45.7C48.0923 45.6 48.0923 45.6 48.0923 45.5C47.6895 45.8 47.3874 46.1 46.8839 46.4C46.7832 45.2 46.6824 44.5 46.6824 43.6Z" fill="#FCEE07"/>
<path d="M47.9916 45.6C45.8768 47.2 44.467 48.3 42.1508 50.5C42.1508 50.6 42.1508 50.9 42.1508 51.1C44.3662 49 45.8768 47.8 47.9916 46.3C48.0923 46.1 48.0923 45.9 47.9916 45.6Z" fill="#3A6106"/>
<path d="M49.905 41.4C48.5958 42.2 47.5888 42.9 46.6824 43.6C46.6824 44.5 46.7831 45.2 46.7831 46.3C47.186 46 47.5888 45.7 47.9916 45.4C47.9916 45.3 47.9916 45.1 47.9916 45C48.6965 44.4 49.5022 43.9 50.1064 43.4C50.1064 42.8 50.0057 42.3 49.905 41.4Z" fill="#81BF02"/>
<path d="M50.3078 43.9C49.6029 44.3 48.898 44.9 48.0923 45.5C48.0923 45.6 48.0923 45.6 48.0923 45.7C48.6965 45.4 49.2001 45 49.905 44.6C49.905 44.8 49.905 45 50.0057 45.2C50.1064 45.1 50.3078 45 50.4085 44.9C50.3078 44.5 50.3078 44.2 50.3078 43.9Z" fill="#32CB06"/>
<path d="M49.8043 44.5C49.0993 44.9 48.5958 45.3 47.9916 45.6C48.0923 45.8 48.0923 46 48.0923 46.3C48.5958 45.9 49.2 45.5 49.905 45.1C49.8043 44.9 49.8043 44.8 49.8043 44.5Z" fill="#0C5305"/>
<path d="M50.2071 43.5C49.5022 43.9 48.7972 44.5 48.0923 45.1C48.0923 45.2 48.0923 45.3 48.0923 45.5C48.8979 44.9 49.6029 44.4 50.3078 43.9C50.2071 43.7 50.2071 43.7 50.2071 43.5Z" fill="#1AA301"/>
<path d="M42.2515 51.1C43.5606 50 44.1648 49.4 45.5747 48.3C45.5747 47.7 45.474 47.4 45.474 46.8C44.1648 47.8 43.5606 48.4 42.2515 49.5C42.2515 50.2 42.2515 50.5 42.2515 51.1Z" fill="#FD8B4D"/>
<path d="M58.6663 36.4C60.781 35.8 61.8888 35.6 63.9029 35.4C64.3057 36 64.6078 36.4 65.1113 37C62.7951 37.2 61.5867 37.4 59.3712 38.1C59.0691 37.4 58.9684 37.1 58.6663 36.4Z" fill="#51D4E6"/>
<path d="M43.8627 42.5C46.481 40.2 47.8909 39.2 50.6099 37.5C50.8113 38.6 50.912 39.2 51.0127 40.2C47.9916 42 46.5817 43.1 43.8627 45.4C43.8627 44.3 43.8627 43.7 43.8627 42.5Z" fill="#1EAB67"/>
<path d="M42.2515 49C43.9634 47.4 44.9705 46.6 46.7832 45.2C46.7832 44 46.6825 43.4 46.6825 42.2C44.8698 43.6 43.9634 44.3 42.2515 46C42.2515 47.1 42.2515 47.7 42.2515 49Z" fill="#2CA67D"/>
<path d="M42.2515 47.3C43.762 46 44.467 45.2 46.0782 44C45.9775 43.1 45.9775 42.7 45.9775 41.8C44.467 43 43.762 43.6 42.2515 45C42.2515 46 42.2515 46.5 42.2515 47.3Z" fill="#00997A"/>
<path d="M42.2515 45.9C44.0641 44.1 45.0712 43.3 47.0853 41.8C46.9846 41 46.9846 40.6 46.9846 39.8C45.0712 41.2 44.1648 42 42.2515 43.7C42.2515 44.6 42.2515 45 42.2515 45.9Z" fill="#4293B0"/>
<path d="M42.6543 42C45.2726 39.6 46.6825 38.5 49.4015 36.8C49.5022 37.5 49.5022 38 49.6029 38.7C46.6825 40.5 45.2726 41.7 42.6543 44.2C42.6543 43.4 42.6543 42.9 42.6543 42Z" fill="#027298"/>
<path d="M42.2515 44.8C42.5532 44.6 42.6537 44.4 42.9554 44.2C42.9554 43.1 42.9554 42.5 42.9554 41.4C42.6537 41.6 42.5532 41.8 42.2515 42C42.2515 43.1 42.2515 43.7 42.2515 44.8Z" fill="#192263"/>
<path d="M63.0972 44.8C64.5071 44.4 65.212 44.2 66.6219 43.9C66.8233 44.3 66.924 44.4 67.0247 44.8C65.6148 45.1 64.9099 45.2 63.5 45.6C63.2986 45.4 63.1979 45.1 63.0972 44.8Z" fill="#FDCB5A"/>
<path d="M55.2423 49.7C56.6522 48.9 57.3571 48.6 58.8677 47.9C58.9684 48.3 59.0691 48.6 59.1698 48.9C57.6592 49.6 56.9543 49.9 55.4437 50.7C55.4437 50.4 55.343 50.2 55.2423 49.7Z" fill="#FE9D3E"/>
<path d="M56.4508 33.8C57.4578 33.5 57.9613 33.4 58.8677 33.1C59.0691 33.5 59.1698 33.6 59.3712 34.1C58.3642 34.3 57.7599 34.5 56.7529 34.8C56.6522 34.3 56.5515 34.1 56.4508 33.8Z" fill="#3DB19A"/>
<path d="M31.7782 25.1C32.0803 25.3 32.4832 25.5 32.7853 25.7C28.2536 30.7 28.2536 30.7 28.2536 30.7C28.0522 30.6 27.8508 30.6 27.6494 30.6C27.1458 30.4 26.6423 30.3 26.0381 30.2C30.0663 23.8 30.0663 23.8 30.0663 23.8C30.167 24.1 30.4691 24.4 30.7712 24.6C30.9726 24.7 31.3754 24.9 31.7782 25.1Z" fill="#535353"/>
<path d="M41.8486 14.2C41.9493 14.2 42.2515 14.2 42.3522 14.1C41.6472 15.9 41.6472 15.9 41.6472 15.9C41.6472 16 41.6472 16 41.6472 16C41.5465 16.1 41.5465 16.1 41.5465 16.1C36.1085 22 36.1085 22 36.1085 22C35.605 21.8 35.1015 21.6 34.4972 21.3C34.0944 21.1 33.7923 20.9 33.3895 20.6C32.9867 20.3 32.5838 20.2 32.0803 20.2C37.4176 11.5 37.4176 11.5 37.4176 11.5C37.4176 11.6 37.4176 11.6 37.4176 11.6C37.9212 12.6 38.9282 13.5 40.036 14C40.4388 14.1 41.043 14.3 41.5465 14.3C41.7479 14.2 41.7479 14.2 41.8486 14.2Z" fill="#535353"/>
<path d="M51.2141 19.6C50.5092 20.2 49.8043 20.7 49.0993 21.2C48.4951 21.5 47.8909 21.8 47.2867 22.1C41.7479 16.1 41.7479 16.1 41.7479 16.1C41.7479 15.9 41.7479 15.9 41.7479 15.9C41.7479 14.2 41.7479 14.2 41.7479 14.2C41.8486 14.2 41.8486 14.2 41.9493 14.2C42.05 14.2 42.3521 14.2 42.4529 14.1C42.8557 14.1 43.1578 14 43.5606 13.9C44.7691 13.5 45.6754 12.6 46.2796 11.5L51.2141 19.6Z" fill="#6D6D6D"/>
<path d="M58.4649 31.2C57.9613 31.3 57.4578 31.4 56.9543 31.6C56.7529 31.7 56.5515 31.7 56.3501 31.7C50.7106 25.7 50.7106 25.7 50.7106 25.7C51.1134 25.5 51.5163 25.3 52.0198 25C52.624 24.6 53.2282 24.2 53.8325 23.7L58.4649 31.2Z" fill="#6D6D6D"/>
<path d="M51.2141 19.6C50.5092 20.2 49.8043 20.7 49.0993 21.2C43.5606 13.9 43.5606 13.9 43.5606 13.9C44.7691 13.5 45.6754 12.6 46.2796 11.5L51.2141 19.6Z" fill="#535353"/>
<path d="M58.4648 31.2C57.9613 31.3 57.4578 31.4 56.9543 31.6C52.0198 25 52.0198 25 52.0198 25C52.624 24.6 53.2282 24.2 53.8325 23.7L58.4648 31.2Z" fill="#535353"/>
<path d="M30.6705 24.4C30.9726 24.6 31.3754 24.8 31.6775 25.1C27.5486 30.5 27.5486 30.5 27.5486 30.5C27.0451 30.3 26.5416 30.2 25.9374 30.1C29.9655 23.7 29.9655 23.7 29.9655 23.7C30.167 23.9 30.3684 24.2 30.6705 24.4Z" fill="#494949"/>
<path d="M40.1367 13.9C34.5979 21.3 34.5979 21.3 34.5979 21.3C34.1951 21.1 33.893 20.9 33.4902 20.6C33.0874 20.3 32.6846 20.2 32.181 20.2C37.5184 11.6 37.5184 11.6 37.5184 11.6C38.0219 12.6 39.0289 13.4 40.1367 13.9Z" fill="#494949"/>
<path d="M73.1677 45.5C72.7648 45.5 72.2613 45.5 71.7578 45.6C82.5331 58.6 82.5332 58.6 82.5332 58.6C72.9663 53.1 62.8958 52 52.8254 55.6C49.5022 56.7 46.1789 58.3 42.755 60.5C42.755 59.5 42.755 59.5 42.755 59.5C42.6543 59.6 42.3522 59.9 42.2515 60C42.1508 41.4 42.1508 41.4 42.1508 41.4C43.3592 40.2 44.5677 39.2 45.7761 38.2C44.5677 38.8 43.3592 39.5 42.1508 40.3L42.0501 40.2C37.2163 35.7 32.3825 32.7 27.7501 31.2C24.024 30.1 20.8015 30.2 17.3775 31.1C17.1761 31.2 17.1761 31.2 17.1761 31.2C0.559918 47.5 0.559918 47.5 0.559918 47.5C0.559918 47.5 4.58809 46.7 10.3282 47C0.0563965 60.1 0.0563965 60.1 0.0563965 60.1C0.157101 60.1 0.157101 60.1 0.157101 60C1.46626 59.4 10.5296 55.1 20.4994 55.1C27.6494 55.1 34.6986 58.3 41.6472 63.1C42.0501 63.4 42.0501 63.4 42.0501 63.4C42.1508 63.4 42.1508 63.4 42.1508 63.4C42.2515 63.4 42.2515 63.4 42.2515 63.4C42.3522 63.3 42.3522 63.3 42.3522 63.3C42.755 63.1 42.755 63.1 42.755 63.1C44.5677 61.9 46.2796 60.8 47.9916 59.8C50.2071 58.6 52.4226 57.6 54.6381 56.8C55.5444 56.5 56.4508 56.2 57.2564 56C58.1627 55.8 59.0691 55.6 59.9754 55.4C61.2846 55.2 62.6944 55.1 64.0036 55.1C73.2684 55.2 81.8282 58.9 84.0437 59.9C84.4465 60 84.6479 60.1 84.6479 60.1L73.1677 45.5ZM1.66766 58.8C10.1268 48.3 10.1268 48.3 10.1268 48.3C11.1339 47 11.1339 47 11.1339 47C14.155 47.2 17.5789 47.7 21.1036 48.8C24.9303 50.1 28.8578 52.2 32.5839 55C33.3895 55.7 34.1951 56.3 35.0008 56.9C23.8226 51.9 12.3423 52.7 1.66766 58.8ZM41.6472 60.3C28.5557 47.7 14.7592 43.3 2.17118 46.6C17.881 32 17.881 32 17.881 32C25.6353 30 33.9937 33.3 42.1508 41L41.6472 60.3Z" fill="#5D5D5D"/>
<path d="M45.6754 9.39998C45.6754 11.5 43.9635 13.2 41.8487 13.2C39.7339 13.2 38.0219 11.5 38.0219 9.39998C38.0219 7.29998 39.7339 5.59998 41.8487 5.59998C43.9635 5.59998 45.6754 7.29998 45.6754 9.39998Z" fill="#535353"/>
<path d="M52.5233 22.5C52.5233 23.3 51.8184 24.1 50.912 24.1C50.1064 24.1 49.4015 23.4 49.4015 22.5C49.4015 21.6 50.1064 20.9 50.912 20.9C51.9191 21 52.5233 21.7 52.5233 22.5Z" fill="#535353"/>
<path d="M51.0127 24.7C50.6099 24.7 50.2071 24.6 49.905 24.3C48.3944 25.1 46.8839 25.6 45.1719 26C41.1437 26.7 37.1155 26.2 33.6916 24.4C33.3895 24.6 32.9867 24.8 32.4832 24.8C36.3099 26.9 40.7409 27.8 45.3733 26.9C47.4881 26.5 49.5022 25.7 51.2141 24.7C51.1134 24.7 51.1134 24.7 51.0127 24.7Z" fill="#535353"/>
<path d="M34.598 22.7C34.598 22.8 34.598 22.9 34.598 23.1C37.7198 24.7 41.3451 25.2 44.8698 24.4C46.3804 24.2 47.6895 23.7 48.9987 23C48.9987 22.9 48.898 22.7 48.898 22.6C48.898 22.4 48.9987 22.2 48.9987 22C47.6895 22.7 46.2797 23.3 44.7691 23.6C41.1437 24.3 37.5184 23.7 34.4973 22C34.4973 22.2 34.598 22.4 34.598 22.7Z" fill="#535353"/>
<path d="M56.7529 16.4C56.6522 16.4 56.6522 16.4 56.7529 16.4C55.9472 16 54.9402 16.2 54.336 17C53.5303 18.3 52.5233 19.4 51.2141 20.4C51.617 20.5 51.9191 20.5 52.2212 20.8C53.3289 19.8 54.336 18.7 55.1416 17.5C55.2423 17.4 55.4437 17.2 55.6451 17.1C55.7458 17.1 55.9472 17.1 56.1487 17.2C56.3501 17.3 56.5515 17.5 56.5515 17.7C56.6522 17.8 56.6522 18.1 56.4508 18.2C55.4437 19.7 54.336 21 53.1275 22.1C53.1275 22.2 53.1275 22.3 53.1275 22.5C53.1275 22.9 53.0268 23.2 52.9261 23.5C54.6381 22.2 56.1487 20.5 57.3571 18.8C57.8606 17.9 57.5585 16.9 56.7529 16.4Z" fill="#535353"/>
<path d="M33.9937 22.7C33.9937 23.5 33.2888 24.2 32.3824 24.2C31.4761 24.2 30.8719 23.5 30.8719 22.7C30.8719 21.8 31.5768 21.1 32.3824 21.1C33.1881 21.1 33.9937 21.8 33.9937 22.7Z" fill="#535353"/>
<path d="M32.6846 55C26.1388 51.4 19.1902 48.5 10.1268 48.3C11.1339 47 11.1339 47 11.1339 47C14.155 47.2 17.5789 47.7 21.1036 48.8C24.9304 50 28.8578 52.1 32.6846 55Z" fill="#D1D3D4"/>
<path d="M42.2512 63.4C30.7709 59.4 18.7871 56.8 0.257507 60.1C0.257507 60 0.257507 60 0.257507 60C1.56666 59.4 10.63 55.1 20.5998 55.1C27.7498 55.1 34.7991 58.3 41.7477 63.1C42.1505 63.4 42.1505 63.4 42.2512 63.4Z" fill="#D1D3D4"/>
<path d="M84.1444 60.1C65.7156 56.6 53.7318 59.3 42.3522 63.3C42.755 63.1 42.755 63.1 42.755 63.1C44.5677 61.9 46.2796 60.8 47.9916 59.8C50.2071 58.6 52.4226 57.6 54.6381 56.8C55.5444 56.5 56.4508 56.2 57.2564 56C58.1627 55.8 59.0691 55.6 59.9754 55.4C61.2846 55.2 62.6944 55.1 64.0036 55.1C73.2684 55.2 81.8282 58.9 84.0437 59.9L84.1444 60.1Z" fill="#D1D3D4"/>
<path d="M42.5536 0.7C42.5536 4.8 42.5536 4.8 42.5536 4.8C42.3522 4.7 42.1508 4.7 41.8487 4.7C41.748 4.7 41.748 4.7 41.748 4.7C41.6473 4.7 41.6473 4.7 41.6473 4.7C41.4458 4.7 41.2444 4.7 41.043 4.8C41.043 0.7 41.043 0.7 41.043 0.7C41.043 0.3 41.3451 0 41.748 0C42.2515 0 42.5536 0.3 42.5536 0.7Z" fill="#535353"/>
</svg>
