<svg width="120" height="120" viewBox="0 0 120 120" fill="none" xmlns="http://www.w3.org/2000/svg">
<path d="M119.405 59.7645H59.33V0C92.4938 0 119.405 26.7723 119.405 59.7645Z" fill="#FF9E32"/>
<path d="M30.2922 110.967C46.8816 110.967 60.3299 97.5879 60.3299 81.0844C60.3299 64.5809 46.8816 51.2021 30.2922 51.2021C13.7028 51.2021 0.254395 64.5809 0.254395 81.0844C0.254395 97.5879 13.7028 110.967 30.2922 110.967Z" fill="#00A87C"/>
<path d="M119.405 119.529C86.2416 119.529 59.33 92.7567 59.33 59.7645H119.405V119.529Z" fill="#046FB7"/>
<path d="M2.15836 59.7645H-0.745605V0H59.3299V2.88892C59.3299 34.3059 33.7388 59.7645 2.15836 59.7645Z" fill="#74DBEE"/>
</svg>
